<?xml version="1.0" standalone="no"?>
<!DOCTYPE svg PUBLIC "-//W3C//DTD SVG 20010904//EN"
 "http://www.w3.org/TR/2001/REC-SVG-20010904/DTD/svg10.dtd">
<svg version="1.0" xmlns="http://www.w3.org/2000/svg"
 width="248.000000pt" height="248.000000pt" viewBox="0 0 248.000000 248.000000"
 preserveAspectRatio="xMidYMid meet">
<metadata>
Created by potrace 1.14, written by Peter Selinger 2001-2017
</metadata>
<g transform="translate(0.000000,248.000000) scale(0.100000,-0.100000)"
fill="#000000" stroke="none">
<path d="M1247 2376 c-14 -21 -14 -26 -2 -36 8 -7 14 -15 13 -18 0 -4 1 -9 2
-12 14 -36 3 -77 -31 -111 -22 -22 -33 -25 -24 -6 4 6 1 5 -7 -3 -7 -8 -36
-26 -65 -39 -33 -15 -50 -28 -46 -37 3 -9 11 -11 21 -5 10 4 22 6 29 4 7 -2
20 0 30 5 23 13 44 -24 30 -52 -12 -25 -12 -146 0 -155 13 -8 13 -41 0 -41 -6
0 -8 -3 -4 -6 3 -3 -4 -16 -16 -28 -32 -30 -49 -73 -38 -94 9 -17 11 -24 11
-41 0 -4 14 -22 30 -39 17 -18 31 -35 31 -39 1 -5 6 -7 13 -5 6 1 0 -7 -14
-18 -14 -11 -29 -20 -33 -20 -12 0 -52 -40 -41 -40 5 0 2 -5 -6 -10 -8 -5 -16
-14 -16 -20 -1 -5 -3 -13 -4 -17 -2 -5 -4 -15 -4 -23 -1 -8 -7 -14 -14 -13 -6
2 -9 -4 -6 -12 4 -8 2 -15 -4 -15 -5 0 -12 -8 -16 -17 -12 -38 -50 -85 -60
-76 -3 4 -6 -1 -6 -9 0 -10 -7 -15 -17 -14 -22 3 -51 -10 -118 -54 -91 -59
-125 -86 -118 -93 3 -4 -2 -7 -12 -7 -10 0 -16 -3 -12 -6 3 -3 -4 -16 -16 -29
-12 -12 -29 -32 -37 -45 -8 -12 -25 -36 -37 -53 -13 -17 -23 -35 -23 -40 0 -5
-9 -22 -21 -38 -11 -16 -18 -29 -14 -29 3 0 -1 -10 -9 -21 -8 -12 -12 -28 -9
-35 3 -8 0 -14 -7 -14 -6 0 -9 -4 -6 -8 3 -5 1 -26 -5 -47 -12 -44 -15 -185
-5 -230 4 -16 9 -48 12 -70 3 -22 9 -44 13 -50 5 -5 9 -17 9 -25 3 -33 11 -72
16 -77 3 -4 1 -12 -5 -20 -6 -7 -8 -13 -3 -13 5 0 -3 -8 -16 -17 -14 -10 -27
-17 -30 -16 -3 1 -9 -5 -13 -13 -5 -8 -12 -12 -18 -9 -5 4 -9 2 -9 -3 0 -5
-25 -17 -55 -27 -30 -9 -57 -20 -59 -24 -10 -16 13 -31 52 -34 23 -1 42 -5 42
-8 0 -3 15 -5 32 -4 18 0 36 -4 40 -10 5 -6 8 -6 8 2 0 9 8 9 30 2 23 -8 28
-15 22 -27 -5 -10 -10 -37 -11 -62 -2 -25 -5 -48 -8 -52 -2 -5 288 -8 645 -8
l649 0 -2 45 c-1 25 1 48 5 50 9 6 8 25 -3 42 -5 8 -3 13 3 13 6 0 9 4 6 9 -3
5 10 11 29 13 34 4 43 -5 35 -37 -1 -5 -2 -36 -2 -68 1 -32 -3 -55 -8 -52 -5
3 -11 2 -14 -3 -2 -4 7 -9 22 -10 l27 -2 -2 71 c-1 39 -4 78 -7 85 -3 8 -4 14
-3 15 1 0 31 3 66 5 79 6 107 19 89 38 -7 8 -16 12 -19 10 -3 -1 -17 3 -31 10
-14 7 -41 16 -61 20 -21 4 -37 11 -37 16 0 5 -9 7 -19 5 -11 -2 -22 3 -25 11
-3 8 -2 14 2 14 4 0 8 12 8 27 1 16 4 46 8 68 4 22 8 55 8 73 1 17 4 32 7 32
8 0 6 94 -3 108 -4 7 -3 12 1 12 5 0 8 30 7 67 -1 38 -3 68 -4 68 0 0 -3 16
-5 35 -4 38 -8 54 -19 85 -5 11 -12 32 -18 47 -6 15 -9 30 -8 34 1 4 -2 10 -7
13 -5 3 -24 26 -43 51 -38 49 -140 155 -140 145 0 -3 -10 0 -22 7 -13 7 -25
13 -28 13 -51 9 -77 42 -55 71 21 27 19 66 -2 62 -9 -2 -20 -12 -23 -23 -4
-15 -15 -21 -42 -22 -21 -2 -38 2 -38 8 0 6 -11 9 -23 7 -24 -3 -50 16 -55 42
-2 8 -8 17 -13 18 -5 2 -7 8 -3 13 3 5 0 9 -6 9 -6 0 -8 5 -5 10 3 6 2 10 -3
10 -8 0 -27 33 -31 53 0 4 -8 15 -17 25 -8 9 -30 42 -48 72 -27 47 -30 58 -20
78 6 13 15 22 18 20 4 -2 18 15 31 36 22 36 23 42 10 72 -7 18 -10 36 -7 40 4
4 2 4 -4 1 -15 -8 -42 26 -47 60 -3 19 2 34 16 48 11 11 16 13 12 5 -6 -10 -1
-8 13 4 12 10 19 23 15 28 -3 6 1 14 8 19 12 7 12 9 0 9 -11 0 -11 3 -1 15 10
11 10 15 0 15 -6 0 -10 6 -7 13 2 6 -7 25 -20 41 -13 16 -22 35 -19 42 3 8 2
14 -2 14 -5 0 -7 29 -6 65 1 43 -2 65 -10 65 -6 0 -4 5 4 10 13 9 13 10 0 10
-10 0 -11 3 -3 8 13 8 20 99 9 125 -11 24 -31 21 -49 -7z"/>
</g>
</svg>
